HIERARCHY
ROOT hip
{
  OFFSET 0 0 0
  CHANNELS 6 Xposition Yposition Zposition Zrotation Yrotation Xrotation
  JOINT abdomen
  {
    OFFSET 0 20.6881 -0.73152
    CHANNELS 3 Zrotation Xrotation Yrotation
    JOINT chest
    {
      OFFSET 0 11.7043 -0.48768
      CHANNELS 3 Zrotation Xrotation Yrotation
      JOINT neck
      {
        OFFSET 0 22.1894 -2.19456
        CHANNELS 3 Zrotation Xrotation Yrotation
        JOINT head
        {
          OFFSET -0.24384 7.07133 1.2192
          CHANNELS 3 Zrotation Xrotation Yrotation
          JOINT leftEye
          {
            OFFSET 4.14528 8.04674 8.04672
            CHANNELS 3 Zrotation Xrotation Yrotation
            End Site
            {
              OFFSET 1 0 0
            }
          }
          JOINT rightEye
          {
            OFFSET -3.6576 8.04674 8.04672
            CHANNELS 3 Zrotation Xrotation Yrotation
            End Site
            {
              OFFSET 1 0 0
            }
          }
        }
      }
      JOINT rCollar
      {
        OFFSET -2.68224 19.2634 -4.8768
        CHANNELS 3 Zrotation Xrotation Yrotation
        JOINT rShldr
        {
          OFFSET -8.77824 -1.95073 1.46304
          CHANNELS 3 Zrotation Xrotation Yrotation
          JOINT rForeArm
          {
            OFFSET -28.1742 -1.7115 0.48768
            CHANNELS 3 Zrotation Xrotation Yrotation
            JOINT rHand
            {
              OFFSET -22.5879 0.773209 7.07136
              CHANNELS 3 Zrotation Xrotation Yrotation
              JOINT rThumb1
              {
                OFFSET -1.2192 -0.487915 3.41376
                CHANNELS 3 Zrotation Xrotation Yrotation
                JOINT rThumb2
                {
                  OFFSET -3.37035 -0.52449 3.41376
                  CHANNELS 3 Zrotation Xrotation Yrotation
                  End Site
                  {
                    OFFSET -1.78271 -1.18214 1.43049
                  }
                }
              }
              JOINT rIndex1
              {
                OFFSET -7.75947 0.938293 5.60832
                CHANNELS 3 Zrotation Xrotation Yrotation
                JOINT rIndex2
                {
                  OFFSET -2.54057 -0.884171 1.56538
                  CHANNELS 3 Zrotation Xrotation Yrotation
                  End Site
                  {
                    OFFSET -1.62519 -0.234802 1.16502
                  }
                }
              }
              JOINT rMid1
              {
                OFFSET -8.24714 1.18213 3.41376
                CHANNELS 3 Zrotation Xrotation Yrotation
                JOINT rMid2
                {
                  OFFSET -3.10165 -0.590103 1.0647
                  CHANNELS 3 Zrotation Xrotation Yrotation
                  End Site
                  {
                    OFFSET -2.48547 -0.328903 0.83742
                  }
                }
              }
              JOINT rRing1
              {
                OFFSET -8.82822 0.546677 1.51678
                CHANNELS 3 Zrotation Xrotation Yrotation
                JOINT rRing2
                {
                  OFFSET -2.60934 -0.819778 -0.0198488
                  CHANNELS 3 Zrotation Xrotation Yrotation
                  End Site
                  {
                    OFFSET -2.33842 -0.294052 0.168128
                  }
                }
              }
              JOINT rPinky1
              {
                OFFSET -8.27202 -0.0477905 -0.4584
                CHANNELS 3 Zrotation Xrotation Yrotation
                JOINT rPinky2
                {
                  OFFSET -1.82734 -0.647385 -0.700984
                  CHANNELS 3 Zrotation Xrotation Yrotation
                  End Site
                  {
                    OFFSET -1.69225 -0.51767 -0.607171
                  }
                }
              }
            }
          }
        }
      }
      JOINT lCollar
      {
        OFFSET 2.68224 19.2634 -4.8768
        CHANNELS 3 Zrotation Xrotation Yrotation
        JOINT lShldr
        {
          OFFSET 8.77824 -1.95073 1.46304
          CHANNELS 3 Zrotation Xrotation Yrotation
          JOINT lForeArm
          {
            OFFSET 28.1742 -1.7115 0.48768
            CHANNELS 3 Zrotation Xrotation Yrotation
            JOINT lHand
            {
              OFFSET 22.5879 0.773209 7.07136
              CHANNELS 3 Zrotation Xrotation Yrotation
              JOINT lThumb1
              {
                OFFSET 1.2192 -0.487915 3.41376
                CHANNELS 3 Zrotation Xrotation Yrotation
                JOINT lThumb2
                {
                  OFFSET 3.37035 -0.52449 3.41376
                  CHANNELS 3 Zrotation Xrotation Yrotation
                  End Site
                  {
                    OFFSET 1.78271 -1.18214 1.43049
                  }
                }
              }
              JOINT lIndex1
              {
                OFFSET 7.75947 0.938293 5.60832
                CHANNELS 3 Zrotation Xrotation Yrotation
                JOINT lIndex2
                {
                  OFFSET 2.54057 -0.884171 1.56538
                  CHANNELS 3 Zrotation Xrotation Yrotation
                  End Site
                  {
                    OFFSET 1.62519 -0.234802 1.16502
                  }
                }
              }
              JOINT lMid1
              {
                OFFSET 8.24714 1.18213 3.41376
                CHANNELS 3 Zrotation Xrotation Yrotation
                JOINT lMid2
                {
                  OFFSET 3.10165 -0.590103 1.0647
                  CHANNELS 3 Zrotation Xrotation Yrotation
                  End Site
                  {
                    OFFSET 2.48547 -0.328903 0.83742
                  }
                }
              }
              JOINT lRing1
              {
                OFFSET 8.82822 0.546677 1.51678
                CHANNELS 3 Zrotation Xrotation Yrotation
                JOINT lRing2
                {
                  OFFSET 2.60934 -0.819778 -0.0198488
                  CHANNELS 3 Zrotation Xrotation Yrotation
                  End Site
                  {
                    OFFSET 2.33842 -0.294052 0.168128
                  }
                }
              }
              JOINT lPinky1
              {
                OFFSET 8.27202 -0.0477905 -0.4584
                CHANNELS 3 Zrotation Xrotation Yrotation
                JOINT lPinky2
                {
                  OFFSET 1.82734 -0.647385 -0.700984
                  CHANNELS 3 Zrotation Xrotation Yrotation
                  End Site
                  {
                    OFFSET 1.69225 -0.51767 -0.607171
                  }
                }
              }
            }
          }
        }
      }
    }
  }
  JOINT rButtock
  {
    OFFSET -8.77824 4.35084 1.2192
    CHANNELS 3 Zrotation Xrotation Yrotation
    JOINT rThigh
    {
      OFFSET 0 -1.70687 -2.19456
      CHANNELS 3 Zrotation Xrotation Yrotation
      JOINT rShin
      {
        OFFSET 0 -36.8199 0.73152
        CHANNELS 3 Zrotation Xrotation Yrotation
        JOINT rFoot
        {
          OFFSET 0.73152 -45.1104 -5.12064
          CHANNELS 3 Zrotation Xrotation Yrotation
          End Site
          {
            OFFSET -1.1221 -3.69964 12.103
          }
        }
      }
    }
  }
  JOINT lButtock
  {
    OFFSET 8.77824 4.35084 1.2192
    CHANNELS 3 Zrotation Xrotation Yrotation
    JOINT lThigh
    {
      OFFSET 0 -1.70687 -2.19456
      CHANNELS 3 Zrotation Xrotation Yrotation
      JOINT lShin
      {
        OFFSET 0 -36.8199 0.73152
        CHANNELS 3 Zrotation Xrotation Yrotation
        JOINT lFoot
        {
          OFFSET -0.73152 -45.1104 -5.12064
          CHANNELS 3 Zrotation Xrotation Yrotation
          End Site
          {
            OFFSET 1.1221 -3.69964 12.103
          }
        }
      }
    }
  }
}
MOTION
Frames:	6
Frame Time:	0.00833333
28.998 85.0697 -116.779 0.0 0.0 0.0 0.202513 -0.000639086 0.005773 0.0558292 -0.000931061 0.00967159 5.06708e-15 0.0 1.2424e-17 1.51915e-14 3.18055e-15 3.72721e-17 -0.0 0.0 0.0 -0.0 0.0 0.0 2.58295e-15 -1.16475e-18 1.49089e-16 5.56438e-14 2.11209e-16 1.19271e-15 9.17043e-13 -2.72335e-13 0.0 1.04808e-11 2.77926e-13 3.49861e-14 2.47229e-11 8.62749e-15 7.31528e-14 4.26791e-11 1.59028e-14 1.41535e-13 2.47276e-11 1.07344e-14 7.31528e-14 7.73091 5.47488 0.417314 2.47221e-11 8.64713e-15 8.26944e-14 2.90554 0.965183 0.102902 2.47309e-11 9.24349e-15 8.42847e-14 10.2786 0.731801 0.0259123 2.47205e-11 9.93923e-15 9.22361e-14 2.22167 -0.733487 -0.20892 2.48622e-15 -7.76503e-19 -1.49089e-16 5.21242e-14 -9.31803e-17 -3.97569e-16 9.14409e-13 2.74522e-13 3.18055e-15 1.04808e-11 -2.72434e-13 5.40694e-14 2.47211e-11 2.67699e-15 8.5875e-14 4.26978e-11 3.18055e-15 1.47101e-13 2.47157e-11 5.56597e-15 9.85972e-14 -7.73091 5.47488 -0.417314 2.47194e-11 3.08116e-15 8.5875e-14 -2.90554 0.965183 -0.102902 2.47139e-11 2.98177e-15 8.42847e-14 -10.2786 0.731801 -0.0259123 2.47217e-11 3.18055e-15 6.99722e-14 -2.22167 -0.733487 0.20892 -2.03217e-16 0.0 -3.88251e-19 0.677507 -3.60113 -0.05365 -0.00454033 0.970118 -0.038746 -0.524713 2.63023 0.11398 2.03217e-16 0.0 3.88251e-19 -0.369369 -2.81566 0.0342628 0.00682562 -0.452695 0.0599306 0.522465 3.26753 -0.126809
29.1884 83.2556 -119.538 -0.0784 3.1968 10.2674 0.394689 -2.72974 1.02101 -0.273969 1.09085 0.303256 -0.260014 1.04166 -0.876489 0.783336 -7.21351 -1.51358 -0.0 0.0 0.0 -0.0 0.0 0.0 4.87994e-15 -5.28028e-14 -3.48087e-14 22.8455 8.01719 -1.853 -5.80667 -3.05643 8.56958 0.0249409 3.50434 0.48918 -1.0575e-10 9.50397e-11 2.38298e-11 -1.83063e-10 1.62937e-10 4.29953e-11 -1.05746e-10 9.50404e-11 2.3831e-11 7.73091 5.47488 0.417314 -1.05751e-10 9.50392e-11 2.38368e-11 2.90554 0.965183 0.102902 -1.05742e-10 9.504e-11 2.38373e-11 10.2786 0.731801 0.0259123 -1.05751e-10 9.50412e-11 2.38436e-11 2.22167 -0.733487 -0.20892 4.79948e-15 -5.28028e-14 -3.51251e-14 -21.3465 12.3702 1.25385 6.66934 -3.75499 -9.51006 -0.00503508 -1.5741 0.220923 2.8234e-10 1.53775e-10 -1.28846e-10 4.88692e-10 2.67133e-10 -2.23056e-10 2.82334e-10 1.53778e-10 -1.28831e-10 -7.73091 5.47488 -0.417314 2.82339e-10 1.53774e-10 -1.28844e-10 -2.90554 0.965183 -0.102902 2.82333e-10 1.53774e-10 -1.28847e-10 -10.2786 0.731801 -0.0259123 2.82342e-10 1.53774e-10 -1.2886e-10 -2.22167 -0.733487 0.20892 -2.03217e-16 0.0 -3.88251e-19 0.864634 -9.01935 0.53576 0.0377386 8.49119 0.14713 -1.18695 -3.86312 -4.59764 2.03217e-16 0.0 3.88251e-19 -0.16013 -9.52105 0.936693 -0.00898936 7.6329 -0.0764736 0.42713 -6.2476 -0.246313
29.1959 83.2509 -119.539 -0.0452 3.1921 10.2896 0.701921 -5.61138 2.10149 -0.635027 2.24477 0.613861 -0.500114 2.14235 -1.80418 1.1852 -14.8248 -3.19551 -0.0 0.0 0.0 -0.0 0.0 0.0 7.69488e-15 -1.0953e-13 -7.26713e-14 47.5841 16.4691 -3.9435 -10.9671 -6.06401 17.7132 -0.0142339 7.20956 1.01264 -2.50973e-10 2.02435e-10 4.75237e-11 -4.34337e-10 3.47081e-10 8.59458e-11 -2.5097e-10 2.02434e-10 4.75262e-11 7.73091 5.47488 0.417314 -2.50975e-10 2.02433e-10 4.7528e-11 2.90554 0.965183 0.102902 -2.50966e-10 2.02435e-10 4.75272e-11 10.2786 0.731801 0.0259123 -2.50973e-10 2.02436e-10 4.75318e-11 2.22167 -0.733487 -0.20892 7.63069e-15 -1.09531e-13 -7.30099e-14 -44.5566 25.4295 2.78941 12.3819 -7.37976 -19.6918 0.00286168 -3.23872 0.455117 5.5591e-10 3.18525e-10 -2.70869e-10 9.62336e-10 5.53374e-10 -4.68944e-10 5.55903e-10 3.18527e-10 -2.70851e-10 -7.73091 5.47488 -0.417314 5.55908e-10 3.18522e-10 -2.70865e-10 -2.90554 0.965183 -0.102902 5.55903e-10 3.18522e-10 -2.7087e-10 -10.2786 0.731801 -0.0259123 5.55913e-10 3.18523e-10 -2.70881e-10 -2.22167 -0.733487 0.20892 -2.03217e-16 0.0 -3.88251e-19 1.18732 -14.7442 1.1855 0.0274571 16.4432 0.355058 -3.06289 -10.6149 -9.72748 2.03217e-16 0.0 3.88251e-19 0.300851 -16.6015 1.95684 0.0175675 16.1799 -0.228114 0.276318 -16.325 -0.397253
29.1903 83.2487 -119.54 -0.0717 3.1951 10.2869 1.07158 -8.17758 3.07936 -0.967176 3.27405 0.891715 -0.684349 3.12205 -2.63294 1.13478 -21.5778 -4.84508 -0.0 0.0 0.0 -0.0 0.0 0.0 9.47392e-15 -1.58406e-13 -1.04724e-13 70.2138 23.946 -6.02489 -14.7553 -8.35042 25.9674 -0.10728 10.5099 1.4898 -3.66695e-10 2.85102e-10 7.13432e-11 -6.34547e-10 4.88779e-10 1.28703e-10 -3.66693e-10 2.851e-10 7.13467e-11 7.73091 5.47488 0.417314 -3.66697e-10 2.851e-10 7.13451e-11 2.90554 0.965183 0.102902 -3.66688e-10 2.85102e-10 7.13432e-11 10.2786 0.731801 0.0259123 -3.66694e-10 2.85104e-10 7.13464e-11 2.22167 -0.733487 -0.20892 9.42601e-15 -1.58407e-13 -1.05077e-13 -66.0102 37.0301 4.60424 16.3931 -10.0251 -28.9512 0.0214164 -4.72201 0.664777 7.97579e-10 4.6132e-10 -3.86709e-10 1.38068e-09 8.01392e-10 -6.69462e-10 7.97571e-10 4.61322e-10 -3.86689e-10 -7.73091 5.47488 -0.417314 7.97577e-10 4.61315e-10 -3.86703e-10 -2.90554 0.965183 -0.102902 7.97572e-10 4.61315e-10 -3.86709e-10 -10.2786 0.731801 -0.0259123 7.97583e-10 4.61317e-10 -3.86719e-10 -2.22167 -0.733487 0.20892 -2.03217e-16 0.0 -3.88251e-19 1.59202 -19.8479 1.80154 -0.0350773 23.5324 0.560663 -5.78784 -16.372 -14.5933 2.03217e-16 0.0 3.88251e-19 0.940021 -22.9086 2.93456 0.0830367 23.8037 -0.379531 0.104033 -25.2771 -0.532312
29.1924 83.2464 -119.54 -0.0644 3.2017 10.2827 1.39029 -9.96502 3.77422 -1.20335 3.99206 1.08647 -0.796553 3.80204 -3.21107 0.836584 -26.2447 -6.12484 -0.0 0.0 0.0 -0.0 0.0 0.0 8.66322e-15 -1.87652e-13 -1.22253e-13 86.334 29.0875 -7.63719 -16.9702 -9.62092 31.749 -0.205296 12.8011 1.82994 -4.08663e-10 3.0595e-10 9.54771e-11 -7.07101e-10 5.24362e-10 1.70976e-10 -4.08662e-10 3.05948e-10 9.54802e-11 7.73091 5.47488 0.417314 -4.08666e-10 3.05949e-10 9.54771e-11 2.90554 0.965183 0.102902 -4.08658e-10 3.0595e-10 9.54747e-11 10.2786 0.731801 0.0259123 -4.08662e-10 3.05952e-10 9.54771e-11 2.22167 -0.733487 -0.20892 8.63162e-15 -1.87653e-13 -1.226e-13 -81.6018 45.0576 6.35139 18.6531 -11.4065 -35.5023 0.0407548 -5.75228 0.811184 9.59494e-10 5.49228e-10 -4.37088e-10 1.66078e-09 9.53848e-10 -7.56554e-10 9.59486e-10 5.49229e-10 -4.37069e-10 -7.73091 5.47488 -0.417314 9.59492e-10 5.49222e-10 -4.37081e-10 -2.90554 0.965183 -0.102902 9.59487e-10 5.49222e-10 -4.37088e-10 -10.2786 0.731801 -0.0259123 9.59498e-10 5.49224e-10 -4.37097e-10 -2.22167 -0.733487 0.20892 -2.03217e-16 0.0 -3.88251e-19 1.94511 -23.4061 2.25495 -0.113199 28.4653 0.720883 -8.27818 -20.115 -18.2087 2.03217e-16 0.0 3.88251e-19 1.51377 -27.3053 3.62563 0.156247 29.1199 -0.500941 -0.00181509 -31.4169 -0.575061
29.1907 83.2432 -119.539 -0.0699 3.1808 10.2904 1.54348 -10.6679 4.05368 -1.29419 4.27475 1.16399 -0.837105 4.06366 -3.43672 0.645522 -28.0361 -6.66384 -0.0 0.0 0.0 -0.0 0.0 0.0 2.95514e-15 -1.89584e-13 -1.19301e-13 92.6785 31.0327 -8.22915 -17.7182 -10.0004 33.9352 -0.2505 13.6764 1.9623 -3.30701e-10 2.26425e-10 1.22256e-10 -5.72111e-10 3.87693e-10 2.16144e-10 -3.307e-10 2.26423e-10 1.22257e-10 7.73091 5.47488 0.417314 -3.30705e-10 2.26423e-10 1.22255e-10 2.90554 0.965183 0.102902 -3.30696e-10 2.26425e-10 1.22253e-10 10.2786 0.731801 0.0259123 -3.30702e-10 2.26427e-10 1.22255e-10 2.22167 -0.733487 -0.20892 2.94415e-15 -1.89585e-13 -1.19609e-13 -87.9275 48.1547 7.20937 19.4296 -11.8207 -38.0731 0.0496481 -6.14825 0.867666 1.02364e-09 5.63728e-10 -3.81974e-10 1.77125e-09 9.78316e-10 -6.60795e-10 1.02363e-09 5.63731e-10 -3.81959e-10 -7.73091 5.47488 -0.417314 1.02363e-09 5.63724e-10 -3.81969e-10 -2.90554 0.965183 -0.102902 1.02363e-09 5.63724e-10 -3.81974e-10 -10.2786 0.731801 -0.0259123 1.02364e-09 5.63726e-10 -3.81983e-10 -2.22167 -0.733487 0.20892 -2.03217e-16 0.0 -3.88251e-19 2.10076 -24.8061 2.42779 -0.152364 30.3804 0.785937 -9.329 -21.3868 -19.6433 2.03217e-16 0.0 3.88251e-19 1.72941 -29.043 3.76744 0.192412 31.205 -0.555733 0.0571937 -33.6173 -0.435128
